/* XPM */
static char * wmtimer_xpm[] = {
"160 100 10 1",
" 	c #208120812081",
".	c #00000000FFFF",
"X	c #000000000000",
"o	c #C71BC30BC71B",
"O	c #861782078E38",
"+	c #EFBEF3CEEFBE",
"@	c #618561856185",
"#	c #9E79A2899E79",
"$	c #410341034103",
"%	c #2081B2CAAEBA s Text",
"                                                                 ...............................................................................................",
"                                                                 ...............................................................................................",
"                                                                 ...............................................................................................",
"    XXXXXXXXXXXXXXXXXXXXXXXXXXXXXXXXXXXXXXXXXXXXXXXXXXXXXXX      ...............................................................................................",
"    XXXXXXXXXXXXXXXXXXXXXXXXXXXXXXXXXXXXXXXXXXXXXXXXXXXXXXXX     ...............................................................................................",
"    XXXXXXXXXXXXXXXXXXXXXXXXXXXXXXXXXXXXXXXXXXXXXXXXXXXXXXXo     ...............................................................................................",
"    XXXXXXXXXXXXXXXXXXXXXXXXXXXXXXXXXXXXXXXXXXXXXXXXXXXXXXXo     ...............................................................................................",
"    XXXXXXXXXXXXXXXXXXXXXXXXXXXXXXXXXXXXXXXXXXXXXXXXXXXXXXXo     ...............................................................................................",
"    XXXXXXXXXXXXXXXXXXXXXXXXXXXXXXXXXXXXXXXXXXXXXXXXXXXXXXXo     ...............................................................................................",
"    XXXXXXXXXXXXXXXXXXXXXXXXXXXXXXXXXXXXXXXXXXXXXXXXXXXXXXXo     ...............................................................................................",
"    XXXXXXXXXXXXXXXXXXXXXXXXXXXXXXXXXXXXXXXXXXXXXXXXXXXXXXXo     ...............................................................................................",
"    XXXXXXXXXXXXXXXXXXXXXXXXXXXXXXXXXXXXXXXXXXXXXXXXXXXXXXXo     ...............................................................................................",
"    XXXXXXXXXXXXXXXXXXXXXXXXXXXXXXXXXXXXXXXXXXXXXXXXXXXXXXXo     ...............................................................................................",
"    XXXXXXXXXXXXXXXXXXXXXXXXXXXXXXXXXXXXXXXXXXXXXXXXXXXXXXXo     ...............................................................................................",
"    XXXXXXXXXXXXXXXXXXXXXXXXXXXXXXXXXXXXXXXXXXXXXXXXXXXXXXXo     ...............................................................................................",
"    XXXXXXXXXXXXXXXXXXXXXXXXXXXXXXXXXXXXXXXXXXXXXXXXXXXXXXXo     ...............................................................................................",
"    XOXXXXXXXXXXXXOXXXXXXXXXXXXXOXXXXXXXXXXXXXOXXXXXXXXXXXXo     ...............................................................................................",
"    oooooooooooooooooooooooooooooooooooooooooooooooooooooooo     ...............................................................................................",
"    XXXXXXXXXXXXXXXXXXXXXXXXXXXXXXXXXXXXXXXXXXXXXXXXXXXXXXX      ...............................................................................................",
"    XXXXXXXXXXXXXXXXXXXXXXXXXXXXXXXXXXXXXXXXXXXXXXXXXXXXXXX      ...............................................................................................",
"    XXXXXXXXXXXXXXXXXXXXXXXXXXXXXXXXXXXXXXXXXXXXXXXXXXXXXXXX     ...............................................................................................",
"    XXXXXXXXXXXXXXXXXXXXXXXXXXXXXXXXXXXXXXXXXXXXXXXXXXXXXXXo     ...............................................................................................",
"    XXXXXXXXXXXXXXXXXXXXXXXXXXXXXXXXXXXXXXXXXXXXXXXXXXXXXXXo     ...............................................................................................",
"    XXXXXXXXXXXXXXXXXXXXXXXXXXXXXXXXXXXXXXXXXXXXXXXXXXXXXXXo     ...............................................................................................",
"    XXXXXXXXXXXXXXXXXXXXXXXXXXXXXXXXXXXXXXXXXXXXXXXXXXXXXXXo     ...............................................................................................",
"    XXXXXXXXXXXXXXXXXXXXXXXXXXXXXXXXXXXXXXXXXXXXXXXXXXXXXXXo     ...............................................................................................",
"    XXXXXXXXXXXXXXXXXXXXXXXXXXXXXXXXXXXXXXXXXXXXXXXXXXXXXXXo     ...............................................................................................",
"    XXXXXXXXXXXXXXXXXXXXXXXXXXXXXXXXXXXXXXXXXXXXXXXXXXXXXXXo     ...............................................................................................",
"    XXXXXXXXXXXXXXXXXXXXXXXXXXXXXXXXXXXXXXXXXXXXXXXXXXXXXXXo     ...............................................................................................",
"    XXXXXXXXXXXXXXXXXXXXXXXXXXXXXXXXXXXXXXXXXXXXXXXXXXXXXXXo     ...............................................................................................",
"    XXXXXXXXXXXXXXXXXXXXXXXXXXXXXXXXXXXXXXXXXXXXXXXXXXXXXXXo     ...............................................................................................",
"    XXXXXXXXXXXXXXXXXXXXXXXXXXXXXXXXXXXXXXXXXXXXXXXXXXXXXXXo     ...............................................................................................",
"    XOXXXXXXXXXXXXOXXXXXXXXXXXXXOXXXXXXXXXXXXXOXXXXXXXXXXXXo     ...............................................................................................",
"    oooooooooooooooooooooooooooooooooooooooooooooooooooooooo     ...............................................................................................",
"    XXXXXXXXXXXXXXXXXXXXXXXXXXXXXXXXXXXXXXXXXXXXXXXXXXXXXXX      ...............................................................................................",
"    XXXXXXXXXXXXXXXXXXXXXXXXXXXXXXXXXXXXXXXXXXXXXXXXXXXXXXX      ...............................................................................................",
"    XXXXXXXXXXXXXXXXXXXXXXXXXXXXXXXXXXXXXXXXXXXXXXXXXXXXXXXo     ...............................................................................................",
"    XXXXXXXXXXXXXXXXXXXXXXXXXXXXXXXXXXXXXXXXXXXXXXXXXXXXXXXo     ...............................................................................................",
"    XXXXXXXXXXXXXXXXXXXXXXXXXXXXXXXXXXXXXXXXXXXXXXXXXXXXXXXo     ...............................................................................................",
"    XXXXXXXXXXXXXXXXXXXXXXXXXXXXXXXXXXXXXXXXXXXXXXXXXXXXXXXo     ...............................................................................................",
"    XXXXXXXXXXXXXXXXXXXXXXXXXXXXXXXXXXXXXXXXXXXXXXXXXXXXXXXo     ...............................................................................................",
"    XXXXXXXXXXXXXXXXXXXXXXXXXXXXXXXXXXXXXXXXXXXXXXXXXXXXXXXo     ...............................................................................................",
"    XXXXXXXXXXXXXXXXXXXXXXXXXXXXXXXXXXXXXXXXXXXXXXXXXXXXXXXo     ...............................................................................................",
"    XXXXXXXXXXXXXXXXXXXXXXXXXXXXXXXXXXXXXXXXXXXXXXXXXXXXXXXo     ...............................................................................................",
"    XXXXXXXXXXXXXXXXXXXXXXXXXXXXXXXXXXXXXXXXXXXXXXXXXXXXXXXo     ...............................................................................................",
"    XXXXXXXXXXXXXXXXXXXXXXXXXXXXXXXXXXXXXXXXXXXXXXXXXXXXXXXo     ...............................................................................................",
"    XXXXXXXXXXXXXXXXXXXXXXXXXXXXXXXXXXXXXXXXXXXXXXXXXXXXXXXo     ...............................................................................................",
"    XXXXXXXXXXXXXXXXXXXXXXXXXXXXXXXXXXXXXXXXXXXXXXXXXXXXXXXo     ...............................................................................................",
"    XOXXXXXXXXXXXXOXXXXXXXXXXXXXOXXXXXXXXXXXXXOXXXXXXXXXXXXo     ...............................................................................................",
"    X++++++++++++@+++++++++++++++++++++++++++@++++++++++++Oo     ...............................................................................................",
"    X+###########$+##########################$+###########Xo     ...............................................................................................",
"    X+##$$###$$##$+####$$#$$######$$$$$$$####$+##$$#######Xo     ...............................................................................................",
"    X+##$$$#$$$##$+####$$#$$###$##$$$$$$$####$+##$$$$#####Xo     ...............................................................................................",
"    X+###$$$$$###$+####$$#$$###$##$$$$$$$####$+##$$$$$$###Xo     ...............................................................................................",
"    X+###$$$$$###$+####$$#$$##$###$$$$$$$####$+##$$$$$$###Xo     ...............................................................................................",
"    X+##$$$#$$$##$+####$$#$$##$###$$$$$$$####$+##$$$$#####Xo     ...............................................................................................",
"    X+##$$###$$##$+####$$#$$######$$$$$$$####$+##$$#######Xo     ...............................................................................................",
"    X+###########$+##########################$+###########Xo     ...............................................................................................",
"    X@$$$$$$$$$$$$@$$$$$$$$$$$$$$$$$$$$$$$$$$$@$$$$$$$$$$$Xo     ...............................................................................................",
"    oooooooooooooooooooooooooooooooooooooooooooooooooooooooo     ...............................................................................................",
"                                                                 ...............................................................................................",
"                                                                 ...............................................................................................",
"                                                                 ...............................................................................................",
"                                                                 ...............................................................................................",
"XXXXXXXXXXXXXXXXXXXXXXXXXXXXXXXXXXXXXXXXXXXXXXXXXXXXXXXXXXXXXXXXXXXXXXXXXXXXXXXXXXXXXXXXXXXXXXXXXXXXXXXXXXXXXXXXXXXXXXXXXXXXXXXXXXXX............................",
"X%%%%%XXXXX%X%%%%%X%%%%%X%XXX%X%%%%%X%%%%%X%%%%%X%%%%%X%%%%%XXXXXXXXXX%XXXXXXXXXXXXXXXXXXXXXXXXXXXXXXXXXXXXXXXXXXXXXXXXXXXXXXXXXXXXX............................",
"X%XXX%XXXXX%XXXXX%XXXXX%X%XXX%X%XXXXX%XXXXXXXXX%X%XXX%X%XXX%XX%%XXXXXX%XXXXXXXXXXXXXXXXXXXXXXXXXXXXXXXXXXXXXXXXXXXXXXXXXXXXXXXXXXXXX............................",
"X%XXX%XXXXX%XXXXX%XXXXX%X%XXX%X%XXXXX%XXXXXXXXX%X%XXX%X%XXX%XX%%XXXXX%%XXXXXXXXXXXXXXXXXXXXXXXXXXXXXXXXXXXXXXXXXXXXXXXXXXXXXXXXXXXXX............................",
"X%XXX%XXXXX%X%%%%%XX%%%%X%%%%%X%%%%%X%%%%%XXXXX%X%%%%%X%%%%%XXXXXXXXX%XXXXXXXXXXXXXXXXXXXXXXXXXXXXXXXXXXXXXXXXXXXXXXXXXXXXXXXXXXXXXX............................",
"X%XXX%XXXXX%X%XXXXXXXXX%XXXXX%XXXXX%X%XXX%XXXXX%X%XXX%XXXXX%XXXXXXXX%%XXXXXXXXXXXXXXXXXXXXXXXXXXXXXXXXXXXXXXXXXXXXXXXXXXXXXXXXXXXXXX............................",
"X%XXX%XXXXX%X%XXXXXXXXX%XXXXX%XXXXX%X%XXX%XXXXX%X%XXX%XXXXX%XX%%XXXX%XXXXXXXXXXXXXXXXXXXXXXXXXXXXXXXXXXXXXXXXXXXXXXXXXXXXXXXXXXXXXXX............................",
"X%%%%%XXXXX%X%%%%%X%%%%%XXXXX%X%%%%%X%%%%%XXXXX%X%%%%%X%%%%%XX%%XXXX%XXXXXXXXXXXXXXXXXXXXXXXXXXXXXXXXXXXXXXXXXXXXXXXXXXXXXXXXXXXXXXX............................",
"XXXXXXXXXXXXXXXXXXXXXXXXXXXXXXXXXXXXXXXXXXXXXXXXXXXXXXXXXXXXXXXXXXXXXXXXXXXXXXXXXXXXXXXXXXXXXXXXXXXXXXXXXXXXXXXXXXXXXXXXXXXXXXXXXXXX............................",
"................................................................................................................................................................",
"XXXXXXXXXXXXXXXXXXXXXXXXXXXXXXXXXXXXXXXXXXXXXXXXXXXXXXXXXXXXXXXXXXXXXXXXXXXXXXXXXXXXXXXXXXXXXXXXXXXXXXXXXXXXXXXXXXXXXXXXXXXXXXXXXXXXXXXXXXXXXXXXXXXXXXXXXXXXXXXX",
"XX%%%XX%%%%XXX%%%%X%%%%XX%%%%XX%%%%%X%%%%%X%XXX%XXX%XXXXXXX%X%XXX%X%XXXXX%XXX%X%%%%XX%%%%%X%%%%%X%%%%%X%%%%%X%%%%%X%%%%%X%XXX%X%XXX%X%XXX%X%XXX%X%XXX%X%%%%%XXXX",
"X%XXX%X%XXX%X%XXXXX%XXX%X%XXXXX%XXXXX%XXXXX%XXX%XXX%XXXXXXX%X%XXX%X%XXXXX%%X%%X%XXX%X%XXX%X%XXX%X%XXX%X%XXX%X%XXXXXXX%XXX%XXX%X%XXX%X%XXX%X%XXX%X%XXX%XXXXX%XXXX",
"X%XXX%X%XXX%X%XXXXX%XXX%X%XXXXX%XXXXX%XXXXX%XXX%XXX%XXXXXXX%X%XX%XX%XXXXX%X%X%X%XXX%X%XXX%X%XXX%X%XXX%X%XXX%X%XXXXXXX%XXX%XXX%X%XXX%X%XXX%XX%X%XX%XXX%XXXX%XXXXX",
"X%%%%%X%%%%XX%XXXXX%XXX%X%%%%XX%%%%XX%X%%%X%%%%%XXX%XXXXXXX%X%%%XXX%XXXXX%XXX%X%XXX%X%XXX%X%%%%%X%%XX%X%%%%XX%%%%%XXX%XXX%XXX%X%XXX%X%XXX%XXX%XXX%%%%%XXX%XXXXXX",
"X%XXX%X%XXX%X%XXXXX%XXX%X%XXXXX%XXXXX%XXX%X%XXX%XXX%XXXXXXX%X%XX%XX%XXXXX%XXX%X%XXX%X%XXX%X%XXXXX%X%X%X%XXX%XXXXX%XXX%XXX%XXX%X%XXX%X%X%X%XX%X%XXXXXX%XX%XXXXXXX",
"X%XXX%X%XXX%X%XXXXX%XXX%X%XXXXX%XXXXX%XXX%X%XXX%XXX%XXXXXXX%X%XXX%X%XXXXX%XXX%X%XXX%X%XXX%X%XXXXX%XX%%X%XXX%XXXXX%XXX%XXX%XXX%X%XXX%X%%X%%X%XXX%XXXXX%X%XXXXXXXX",
"X%XXX%X%%%%XXX%%%%X%%%%XX%%%%XX%XXXXX%%%%%X%XXX%XXX%XXX%%%%%X%XXX%X%%%%XX%XXX%X%XXX%X%%%%%X%XXXXX%%%%%X%XXX%X%%%%%XXX%XXXX%%%%XX%%%XX%XXX%X%XXX%X%%%%%X%%%%%XXXX",
"XXXXXXXXXXXXXXXXXXXXXXXXXXXXXXXXXXXXXXXXXXXXXXXXXXXXXXXXXXXXXXXXXXXXXXXXXXXXXXXXXXXXXXXXXXXXXXXXXXXXXXXXXXXXXXXXXXXXXXXXXXXXXXXXXXXXXXXXXXXXXXXXXXXXXXXXXXXXXXXX",
"................................................................................................................................................................",
"................................................................................................................................................................",
"................................................................................................................................................................",
"................................................................................................................................................................",
"................................................................................................................................................................",
"................................................................................................................................................................",
"................................................................................................................................................................",
"................................................................................................................................................................",
"................................................................................................................................................................",
"................................................................................................................................................................",
"................................................................................................................................................................",
"................................................................................................................................................................",
"................................................................................................................................................................",
" ...............................................................................................................................................................",
"................................................................................................................................................................",
"................................................................................................................................................................",
"................................................................................................................................................................"};
